<svg id="Capa_1" data-name="Capa 1" xmlns="http://www.w3.org/2000/svg" xmlns:xlink="http://www.w3.org/1999/xlink" viewBox="0 0 384.52 252.38"><defs><style>.cls-1{font-size:69.54px;fill:#30b193;font-family:aAmylaseScript, a Amylase Script;}.cls-2{fill:#a4d2af;}.cls-3{fill:#de4024;}.cls-4{fill:url(#Degradado_sin_nombre_29);}</style><linearGradient id="Degradado_sin_nombre_29" x1="45.81" y1="99.78" x2="343.07" y2="99.78" gradientUnits="userSpaceOnUse"><stop offset="0.23" stop-color="#30b193"/><stop offset="0.28" stop-color="#56bc9c"/><stop offset="0.34" stop-color="#78c5a4"/><stop offset="0.4" stop-color="#90ccaa"/><stop offset="0.45" stop-color="#9fd1ae"/><stop offset="0.49" stop-color="#a4d2af"/><stop offset="0.54" stop-color="#a6cca9"/><stop offset="0.59" stop-color="#adbb99"/><stop offset="0.65" stop-color="#b8a07f"/><stop offset="0.72" stop-color="#c77a5b"/><stop offset="0.79" stop-color="#da492c"/><stop offset="0.8" stop-color="#de4024"/></linearGradient></defs><text class="cls-1" transform="translate(20.35 215.49)">Proyecto<tspan class="cls-2" x="190.62" y="0"> </tspan><tspan class="cls-3" x="202.09" y="0">Infinito</tspan></text><path class="cls-4" d="M269.71,33c-17.95,2.17-35,10.86-53.86,27.52-4.6,4.05-7.76,7.05-15.27,14.51-5.34,5.32-6.13,6-6.53,5.78s-2.32-2.16-4.62-4.5c-26.59-27.22-43.84-38.68-63.81-42.35A67.84,67.84,0,0,0,47,86.9,56.34,56.34,0,0,0,45.81,100a71,71,0,0,0,4.09,24.75c7.86,22.41,26.61,37.82,50.3,41.35,14.73,2.21,31.07-.6,45.48-7.78A101.67,101.67,0,0,0,162,148.1c7.46-5.56,12.93-10.46,24.66-22.08,4.09-4.07,7.6-7.4,7.77-7.4A29.24,29.24,0,0,1,198,122c4,4.16,13.75,13.57,17.89,17.27,19.06,17,33.52,24.52,51.74,27,1.35.18,4.51.28,8.14.28a49.86,49.86,0,0,0,9.29-.54,67.87,67.87,0,0,0,38.56-19.34,66.9,66.9,0,0,0,19.13-39.48,98.55,98.55,0,0,0-.14-16.74c-1.81-13-6.39-24.8-13.2-33.86a65.93,65.93,0,0,0-9.88-10.11c-8.46-6.75-19.45-11.3-32-13.25A97.33,97.33,0,0,0,269.71,33ZM122.56,60.84C130.37,62.49,138.27,66.26,146,72c2.77,2,6.9,5.44,9.6,7.88,3.39,3.09,20.45,19.76,20.45,20S161.21,115,157.61,118.21c-11.44,10.18-22,16.61-32,19.5a40.38,40.38,0,0,1-13.13,1.72c-4.42,0-5.47-.07-7.77-.54C91,136.13,81,127.18,76.63,113.86c-3.72-11.37-3-22.15,2.09-32.19A39.4,39.4,0,0,1,108.15,60.4a40.42,40.42,0,0,1,6.81-.23A33.89,33.89,0,0,1,122.56,60.84Zm159.51-.44a36.61,36.61,0,0,1,19.55,8.79c10.2,8.92,15.08,24.7,12,39a40,40,0,0,1-28.56,30.1,38.63,38.63,0,0,1-10.55,1.28c-7.21,0-13-1.44-20.22-5-7.6-3.72-14.93-9.09-24.11-17.69-5.76-5.39-17.27-16.71-17.34-17.06S223.69,88.29,228.38,84c15.85-14.64,28.38-21.69,41.84-23.57A55.88,55.88,0,0,1,282.07,60.4Z"/></svg>